<svg aria-hidden="true" style="position:absolute;width:0;height:0" xmlns="http://www.w3.org/2000/svg" overflow="hidden"><defs><symbol id="icon-search" viewBox="0 0 32 32"><path d="M31.008 27.231l-7.58-6.447c-.784-.705-1.622-1.029-2.299-.998a11.954 11.954 0 002.87-7.787c0-6.627-5.373-12-12-12s-12 5.373-12 12 5.373 12 12 12c2.972 0 5.691-1.081 7.787-2.87-.031.677.293 1.515.998 2.299l6.447 7.58c1.104 1.226 2.907 1.33 4.007.23s.997-2.903-.23-4.007zM12 20a8 8 0 110-16 8 8 0 010 16z"/></symbol><symbol id="icon-remove" viewBox="0 0 32 32"><path d="M6 32h20l2-22H4zM20 4V0h-8v4H2v6l2-2h24l2 2V4H20zm-2 0h-4V2h4v2z"/></symbol><symbol id="icon-add" viewBox="0 0 32 32"><path d="M31 12H20V1a1 1 0 00-1-1h-6a1 1 0 00-1 1v11H1a1 1 0 00-1 1v6a1 1 0 001 1h11v11a1 1 0 001 1h6a1 1 0 001-1V20h11a1 1 0 001-1v-6a1 1 0 00-1-1z" /></symbol></defs></svg> 